<mxfile host="app.diagrams.net" modified="2023-03-23T15:46:00.578Z" agent="5.0 (Windows NT 10.0; Win64; x64) AppleWebKit/537.36 (KHTML, like Gecko) Chrome/111.0.0.0 Safari/537.36" etag="igvbjJEW2hXykvPuRlLF" version="21.0.10" type="github">
  <diagram name="Strona-1" id="QKZde5pyJnMmKgtGxvW7">
    <mxGraphModel dx="1434" dy="796" grid="1" gridSize="10" guides="1" tooltips="1" connect="1" arrows="1" fold="1" page="1" pageScale="1" pageWidth="850" pageHeight="1100" math="0" shadow="0">
      <root>
        <mxCell id="0" />
        <mxCell id="1" parent="0" />
        <mxCell id="VwWhMEpXeYyoIKgTOm-M-57" style="edgeStyle=orthogonalEdgeStyle;rounded=0;orthogonalLoop=1;jettySize=auto;html=1;entryX=0.5;entryY=0;entryDx=0;entryDy=0;" edge="1" parent="1" source="VwWhMEpXeYyoIKgTOm-M-58" target="VwWhMEpXeYyoIKgTOm-M-61">
          <mxGeometry relative="1" as="geometry">
            <mxPoint x="465" y="200" as="targetPoint" />
          </mxGeometry>
        </mxCell>
        <mxCell id="VwWhMEpXeYyoIKgTOm-M-58" value="&lt;font style=&quot;font-size: 24px;&quot;&gt;Start&amp;nbsp;&lt;/font&gt;" style="ellipse;whiteSpace=wrap;html=1;" vertex="1" parent="1">
          <mxGeometry x="405" y="40" width="120" height="80" as="geometry" />
        </mxCell>
        <mxCell id="VwWhMEpXeYyoIKgTOm-M-59" value="&lt;font style=&quot;font-size: 24px;&quot;&gt;Stop&lt;/font&gt;" style="ellipse;whiteSpace=wrap;html=1;" vertex="1" parent="1">
          <mxGeometry x="630" y="380" width="120" height="80" as="geometry" />
        </mxCell>
        <mxCell id="VwWhMEpXeYyoIKgTOm-M-60" style="edgeStyle=orthogonalEdgeStyle;rounded=0;orthogonalLoop=1;jettySize=auto;html=1;entryX=0.5;entryY=0;entryDx=0;entryDy=0;" edge="1" parent="1" source="VwWhMEpXeYyoIKgTOm-M-61" target="VwWhMEpXeYyoIKgTOm-M-64">
          <mxGeometry relative="1" as="geometry" />
        </mxCell>
        <mxCell id="VwWhMEpXeYyoIKgTOm-M-61" value="podaj a&lt;br&gt;i = 0&lt;br&gt;zamiana = 1" style="rounded=0;whiteSpace=wrap;html=1;" vertex="1" parent="1">
          <mxGeometry x="405" y="210" width="120" height="60" as="geometry" />
        </mxCell>
        <mxCell id="VwWhMEpXeYyoIKgTOm-M-62" style="edgeStyle=orthogonalEdgeStyle;rounded=0;orthogonalLoop=1;jettySize=auto;html=1;entryX=1;entryY=0.5;entryDx=0;entryDy=0;" edge="1" parent="1" source="VwWhMEpXeYyoIKgTOm-M-64" target="VwWhMEpXeYyoIKgTOm-M-67">
          <mxGeometry relative="1" as="geometry" />
        </mxCell>
        <mxCell id="VwWhMEpXeYyoIKgTOm-M-63" style="edgeStyle=orthogonalEdgeStyle;rounded=0;orthogonalLoop=1;jettySize=auto;html=1;entryX=0;entryY=0.5;entryDx=0;entryDy=0;" edge="1" parent="1" source="VwWhMEpXeYyoIKgTOm-M-64" target="VwWhMEpXeYyoIKgTOm-M-59">
          <mxGeometry relative="1" as="geometry" />
        </mxCell>
        <mxCell id="VwWhMEpXeYyoIKgTOm-M-64" value="zamiana = 1" style="rhombus;whiteSpace=wrap;html=1;" vertex="1" parent="1">
          <mxGeometry x="395" y="350" width="140" height="140" as="geometry" />
        </mxCell>
        <mxCell id="VwWhMEpXeYyoIKgTOm-M-65" value="Tak" style="text;html=1;strokeColor=none;fillColor=none;align=center;verticalAlign=middle;whiteSpace=wrap;rounded=0;" vertex="1" parent="1">
          <mxGeometry x="330" y="380" width="60" height="30" as="geometry" />
        </mxCell>
        <mxCell id="VwWhMEpXeYyoIKgTOm-M-66" style="edgeStyle=orthogonalEdgeStyle;rounded=0;orthogonalLoop=1;jettySize=auto;html=1;entryX=0.5;entryY=0;entryDx=0;entryDy=0;" edge="1" parent="1" source="VwWhMEpXeYyoIKgTOm-M-67" target="VwWhMEpXeYyoIKgTOm-M-70">
          <mxGeometry relative="1" as="geometry">
            <mxPoint x="100" y="390" as="targetPoint" />
            <Array as="points">
              <mxPoint x="100" y="420" />
            </Array>
          </mxGeometry>
        </mxCell>
        <mxCell id="VwWhMEpXeYyoIKgTOm-M-67" value="zamiana = 0" style="rounded=0;whiteSpace=wrap;html=1;" vertex="1" parent="1">
          <mxGeometry x="180" y="390" width="120" height="60" as="geometry" />
        </mxCell>
        <mxCell id="VwWhMEpXeYyoIKgTOm-M-68" style="edgeStyle=orthogonalEdgeStyle;rounded=0;orthogonalLoop=1;jettySize=auto;html=1;entryX=0.5;entryY=0;entryDx=0;entryDy=0;" edge="1" parent="1" source="VwWhMEpXeYyoIKgTOm-M-70" target="VwWhMEpXeYyoIKgTOm-M-73">
          <mxGeometry relative="1" as="geometry" />
        </mxCell>
        <mxCell id="VwWhMEpXeYyoIKgTOm-M-69" style="edgeStyle=orthogonalEdgeStyle;rounded=0;orthogonalLoop=1;jettySize=auto;html=1;entryX=0.5;entryY=0;entryDx=0;entryDy=0;" edge="1" parent="1" source="VwWhMEpXeYyoIKgTOm-M-70" target="VwWhMEpXeYyoIKgTOm-M-64">
          <mxGeometry relative="1" as="geometry">
            <Array as="points">
              <mxPoint x="50" y="330" />
              <mxPoint x="465" y="330" />
            </Array>
          </mxGeometry>
        </mxCell>
        <mxCell id="VwWhMEpXeYyoIKgTOm-M-70" value="i&amp;lt;a" style="rhombus;whiteSpace=wrap;html=1;" vertex="1" parent="1">
          <mxGeometry x="60" y="440" width="80" height="80" as="geometry" />
        </mxCell>
        <mxCell id="VwWhMEpXeYyoIKgTOm-M-71" style="edgeStyle=orthogonalEdgeStyle;rounded=0;orthogonalLoop=1;jettySize=auto;html=1;entryX=0.5;entryY=0;entryDx=0;entryDy=0;" edge="1" parent="1" source="VwWhMEpXeYyoIKgTOm-M-73" target="VwWhMEpXeYyoIKgTOm-M-76">
          <mxGeometry relative="1" as="geometry" />
        </mxCell>
        <mxCell id="VwWhMEpXeYyoIKgTOm-M-72" style="edgeStyle=orthogonalEdgeStyle;rounded=0;orthogonalLoop=1;jettySize=auto;html=1;entryX=0;entryY=0.5;entryDx=0;entryDy=0;" edge="1" parent="1" source="VwWhMEpXeYyoIKgTOm-M-73" target="VwWhMEpXeYyoIKgTOm-M-79">
          <mxGeometry relative="1" as="geometry">
            <mxPoint x="170" y="600" as="targetPoint" />
          </mxGeometry>
        </mxCell>
        <mxCell id="VwWhMEpXeYyoIKgTOm-M-73" value="a[i]&amp;gt;a[i+1]" style="rhombus;whiteSpace=wrap;html=1;" vertex="1" parent="1">
          <mxGeometry x="60" y="560" width="80" height="80" as="geometry" />
        </mxCell>
        <mxCell id="VwWhMEpXeYyoIKgTOm-M-74" value="Nie" style="text;html=1;strokeColor=none;fillColor=none;align=center;verticalAlign=middle;whiteSpace=wrap;rounded=0;" vertex="1" parent="1">
          <mxGeometry x="90" y="650" width="60" height="30" as="geometry" />
        </mxCell>
        <mxCell id="VwWhMEpXeYyoIKgTOm-M-75" style="edgeStyle=orthogonalEdgeStyle;rounded=0;orthogonalLoop=1;jettySize=auto;html=1;entryX=0.5;entryY=1;entryDx=0;entryDy=0;" edge="1" parent="1" source="VwWhMEpXeYyoIKgTOm-M-76" target="VwWhMEpXeYyoIKgTOm-M-70">
          <mxGeometry relative="1" as="geometry">
            <Array as="points">
              <mxPoint x="10" y="710" />
              <mxPoint x="10" y="520" />
            </Array>
          </mxGeometry>
        </mxCell>
        <mxCell id="VwWhMEpXeYyoIKgTOm-M-76" value="i= i+1" style="rounded=0;whiteSpace=wrap;html=1;" vertex="1" parent="1">
          <mxGeometry x="40" y="680" width="120" height="60" as="geometry" />
        </mxCell>
        <mxCell id="VwWhMEpXeYyoIKgTOm-M-77" value="Tak" style="text;html=1;strokeColor=none;fillColor=none;align=center;verticalAlign=middle;whiteSpace=wrap;rounded=0;" vertex="1" parent="1">
          <mxGeometry x="160" y="540" width="60" height="30" as="geometry" />
        </mxCell>
        <mxCell id="VwWhMEpXeYyoIKgTOm-M-78" style="edgeStyle=orthogonalEdgeStyle;rounded=0;orthogonalLoop=1;jettySize=auto;html=1;entryX=1;entryY=0.5;entryDx=0;entryDy=0;" edge="1" parent="1" source="VwWhMEpXeYyoIKgTOm-M-79" target="VwWhMEpXeYyoIKgTOm-M-76">
          <mxGeometry relative="1" as="geometry">
            <Array as="points">
              <mxPoint x="250" y="710" />
            </Array>
          </mxGeometry>
        </mxCell>
        <mxCell id="VwWhMEpXeYyoIKgTOm-M-79" value="c=a[i]&lt;br&gt;a[i]=a[i+1]&lt;br&gt;a[i+1] = a&lt;br&gt;zamiana 1" style="rounded=0;whiteSpace=wrap;html=1;" vertex="1" parent="1">
          <mxGeometry x="190" y="570" width="120" height="60" as="geometry" />
        </mxCell>
      </root>
    </mxGraphModel>
  </diagram>
</mxfile>
